# xmcd
#
# Track frame offsets: 
#        150
#        14939
#        28437
#        41402
#        54393
#        67982
#        83117
#        96815
#        109307
#        121239
#        136205
#        149872
#        161663
#        177359
#        188303
#        199477
#        214711
#        228549
#        242124
#        257119
#        271401
#        282928
#        296811
#        311267
#
# Disc length: 4310 seconds
#
# Revision: 1
# Processed by: cddbd v1.5.1PL0 Copyright (c) Steve Scherf et al.
# Submitted via: ExactAudioCopy v0.95b2
#
DISCID=7310d418
DTITLE=Fats Waller - Classic Jazz Archive CD 1 - Stomp
DYEAR=2004
DGENRE=Jazz
TTITLE0=Muscle Shoals Blues
TTITLE1=Birmingham Blues
TTITLE2=St. Louis Blues
TTITLE3=Blue Black Bottom
TTITLE4=Sugar (Instr.)
TTITLE5=Fats Waller Stomp
TTITLE6=Thou Swell
TTITLE7=Handful Of Keys
TTITLE8=The Minor Drag
TTITLE9=Harlem Fuss
TTITLE10=Ain't Misbehavin'
TTITLE11=Gladyse
TTITLE12=I Need Someone Like You
TTITLE13=Turn On The Heat
TTITLE14=Ridin' But Walkin'
TTITLE15=After You've Gone
TTITLE16=I'm Crazy 'Bout My Baby (And My Baby's Crazy 'Bout Me)
TTITLE17=Royal Garden Blues
TTITLE18=Draggin' My Heart Around
TTITLE19=Do Me A Favour
TTITLE20=Georgia May
TTITLE21=Sweetie Pie
TTITLE22=You're Not The Only Oyster In The Stew
TTITLE23=Alligator Crawl
EXTD=
EXTT0=
EXTT1=
EXTT2=
EXTT3=
EXTT4=
EXTT5=
EXTT6=
EXTT7=
EXTT8=
EXTT9=
EXTT10=
EXTT11=
EXTT12=
EXTT13=
EXTT14=
EXTT15=
EXTT16=
EXTT17=
EXTT18=
EXTT19=
EXTT20=
EXTT21=
EXTT22=
EXTT23=
PLAYORDER=
